<svg width="63" height="57" viewBox="0 0 63 57" fill="none" xmlns="http://www.w3.org/2000/svg">
<path d="M0 55.7339L5.15076 2.90558H11.3581V55.7339H0Z" fill="#1E392A"/>
<path d="M4.62249 1.84899L3.698 0H12.6788L11.3581 1.84899H4.62249Z" fill="#E9C895"/>
<path d="M62.8657 55.7339L57.6077 2.90558H51.271V55.7339H62.8657Z" fill="#1E392A"/>
<path d="M58.1471 1.84899L59.0908 0H49.9229L51.2711 1.84899H58.1471Z" fill="#E9C895"/>
<rect x="21.6597" y="25.6218" width="17.9616" height="30.9046" fill="#1E392A"/>
<path d="M24.3011 56.5263H14.792V11.6223H46.7531V56.5263H37.5082C36.9799 39.2251 39.8855 29.848 30.9046 27.4708C22.32 29.3197 24.4673 41.377 24.3011 56.5263Z" fill="#E9C895"/>
<path d="M18.7542 26.6783V16.773H30.7726H42.791V26.6783L30.7726 16.773L18.7542 26.6783Z" fill="#3CC37E"/>
</svg>
